Coordinates
version=1
nRows=14
nColumns=24
inDegrees=yes

Units are S.I. units (second, meters, Newtons, ...)
Angles are in degrees.

endheader
time	pelvis_tilt	pelvis_list	pelvis_rotation	pelvis_tx	pelvis_ty	pelvis_tz	hip_flexion_r	hip_adduction_r	hip_rotation_r	knee_angle_r	ankle_angle_r	subtalar_angle_r	mtp_angle_r	hip_flexion_l	hip_adduction_l	hip_rotation_l	knee_angle_l	ankle_angle_l	subtalar_angle_l	mtp_angle_l	lumbar_extension	lumbar_bending	lumbar_rotation
      1.12883333	      2.03053398	      7.94888940	     -3.18905861	      0.13704398	      0.99333103	      0.35902828	     -7.54983632	    -11.16984926	     -6.62261443	    -46.92320888	    -15.48264231	     -3.06520941	     38.74312215	     16.97262070	     13.78159113	      3.30398321	    -18.75974381	     -0.94045811	    -19.67176262	      1.07130155	    -13.64192126	     -4.20574870	      1.68185414
      1.13300000	      2.10812204	      8.16607169	     -3.24965941	      0.14247089	      0.99299203	      0.35865580	     -7.04203091	    -11.55516463	     -6.54548395	    -48.24222524	    -16.74295350	     -3.50862144	     38.57440873	     16.87128877	     14.07462325	      3.15111412	    -19.36135246	     -0.41969452	    -19.61648170	      0.96904458	    -13.72057251	     -4.43559524	      1.54920020
      1.13716667	      2.18852629	      8.37349234	     -3.32705273	      0.14787235	      0.99270370	      0.35831262	     -6.51937253	    -11.92234845	     -6.41653684	    -49.54498110	    -17.99805007	     -3.87326658	     38.12473815	     16.72771263	     14.35347388	      3.02677590	    -19.88558066	      0.18075355	    -19.49185547	      0.77762471	    -13.80258301	     -4.67210212	      1.41113981
      1.14133333	      2.31482060	      8.64102943	     -3.40145153	      0.15327464	      0.99249105	      0.35792347	     -6.03141471	    -12.37821029	     -6.34396592	    -50.86340588	    -19.12209595	     -4.10696270	     33.11206521	     16.49549504	     14.70738670	      2.93405985	    -20.31038786	      0.67608320	    -19.47132442	     -0.85473813	    -13.93665150	     -4.97023125	      1.29454301
      1.14550000	      2.39939209	      8.87846835	     -3.47863445	      0.15864979	      0.99229046	      0.35754935	     -5.48745367	    -12.78746500	     -6.23004527	    -52.13730198	    -20.29877034	     -4.48584088	     32.99541923	     16.28013262	     15.02310254	      2.84743164	    -20.67950807	      1.11640949	    -19.50510002	     -0.83954761	    -14.01814209	     -5.22139225	      1.14652578
      1.14966667	      2.52550351	      9.13710214	     -3.57244568	      0.16402322	      0.99218453	      0.35717980	     -4.97719414	    -13.22662026	     -6.10484346	    -53.38435363	    -21.41365576	     -4.77640284	     32.87239374	     15.97466097	     15.36365386	      2.78560560	    -20.94570069	      1.55885348	    -19.51551842	     -0.82747931	    -14.13453840	     -5.49771477	      1.00564963
      1.15383333	      2.62298230	      9.31623302	     -3.65287143	      0.16931350	      0.99209647	      0.35687307	     -4.42909554	    -13.53835553	     -5.92874311	    -54.59900242	    -22.46633045	     -5.14931369	     26.81994560	     15.71686041	     15.60267786	      2.65970319	    -21.27053556	      2.08902515	    -19.37823998	     -0.91810792	    -14.24783327	     -5.70037537	      0.90392693
      1.15800000	      2.71094302	      9.53574144	     -3.74034486	      0.17460308	      0.99204970	      0.35653478	     -3.85751931	    -13.90641273	     -5.75920911	    -55.78239786	    -23.45517104	     -5.51566782	     26.71298024	     15.41604641	     15.89468359	      2.60101238	    -21.46407718	      2.47232889	    -19.40012923	     -0.90876655	    -14.34159992	     -5.93682194	      0.73096488
      1.16216667	      2.83714212	      9.75778951	     -3.84283522	      0.17991601	      0.99210196	      0.35619665	     -3.32562172	    -14.28223857	     -5.58616943	    -56.91666756	    -24.37206276	     -5.85492175	     26.56927611	     15.03612213	     16.18987291	      2.53940910	    -21.57964386	      2.86712951	    -19.40192158	     -0.89999138	    -14.45052796	     -6.14838971	      0.58578490
      1.16633333	      2.94342685	      9.91218882	     -3.95630398	      0.18514371	      0.99221023	      0.35595836	     -2.75741651	    -14.54007473	     -5.33366799	    -58.01584113	    -25.13729544	     -6.17470872	     20.10493123	     14.68386580	     16.39300180	      2.41563835	    -21.71624178	      3.29666505	    -19.29622455	     -1.01111456	    -14.57350247	     -6.31695421	      0.47770693
      1.17050000	      3.04544462	     10.11045056	     -4.03470392	      0.19041178	      0.99233925	      0.35560782	     -2.19783071	    -14.86914637	     -5.16196131	    -59.06525178	    -25.82499771	     -6.50499075	     20.03020304	     14.27950545	     16.66969756	      2.42178363	    -21.74079304	      3.64500082	    -19.32284789	     -1.00128930	    -14.66435142	     -6.50698535	      0.31415934
      1.17466667	      3.15157851	     10.22986918	     -4.12024970	      0.19562784	      0.99257498	      0.35532696	     -1.64918531	    -15.07170897	     -4.93260596	    -60.03433090	    -26.46841494	     -6.98421815	     19.61520575	     13.85892232	     16.85364582	      2.41032206	    -21.76008417	      4.00205657	    -19.32018557	     -0.99510008	    -14.77862007	     -6.60259144	      0.11391154
      1.17883333	      3.22201891	     10.37961588	     -4.21601924	      0.20082630	      0.99277445	      0.35507168	     -1.03634302	    -15.30545072	     -4.68237785	    -61.01163846	    -26.76851018	     -7.15818774	     14.12736744	     13.47197310	     17.05358654	      2.33723302	    -21.75136698	      4.37495928	    -19.18008456	     -1.03065432	    -14.83888352	     -6.74979908	     -0.06828586
      1.18300000	      3.34047947	     10.52335039	     -4.32222359	      0.20604266	      0.99312010	      0.35480220	     -0.48863691	    -15.53463142	     -4.44102545	    -61.89824506	    -27.06508032	     -7.46612173	     14.06979821	     12.98154633	     17.26381236	      2.34075488	    -21.63460779	      4.61889135	    -19.23347316	     -1.02442733	    -14.95538799	     -6.88872188	     -0.17164778
